HIERARCHY
ROOT Hips
{
	OFFSET 0.000000 0.000000 0.000000 
	CHANNELS 6 Xposition Yposition Zposition Yrotation Zrotation Xrotation 
	JOINT Lumbar
	{
		OFFSET 0.000000 0.000000 0.000000 
		CHANNELS 3 Zrotation Xrotation Yrotation
		JOINT Neck
		{
			OFFSET 0.000000 0.445665 0.000000 
			CHANNELS 3 Zrotation Xrotation Yrotation
			End Site
			{
				OFFSET 0.000000 0.227535 0.000000 
			}
		}
		JOINT RightShoulder
		{
			OFFSET 0.019635 0.377685 0.194865 
			CHANNELS 3 Zrotation Xrotation Yrotation
			JOINT RightElbow
			{
				OFFSET 0.000000 -0.243375 0.000000 
				CHANNELS 2 Zrotation Yrotation
				JOINT RightWrist
				{
					OFFSET 0.000000 -0.264825 0.000000 
					CHANNELS 2 Zrotation Xrotation
					End Site
					{
						OFFSET 0.006600 -0.176220 0.000990 
					}
				}
			}
		}
		JOINT LeftShoulder
		{
			OFFSET 0.019635 0.377685 -0.194865 
			CHANNELS 3 Zrotation Xrotation Yrotation
			JOINT LeftElbow
			{
				OFFSET 0.000000 -0.243375 0.000000 
				CHANNELS 2 Zrotation Yrotation
				JOINT LeftWrist
				{
					OFFSET 0.000000 -0.264825 0.000000 
					CHANNELS 2 Zrotation Xrotation
					End Site
					{
						OFFSET 0.006600 -0.176220 -0.000990 
					}
				}
			}
		}
	}
	JOINT RightHip
	{
		OFFSET 0.052140 -0.069960 0.075570 
		CHANNELS 3 Zrotation Xrotation Yrotation
		JOINT RightKnee
		{
			OFFSET 0.000000 -0.402270 0.000000 
			CHANNELS 1 Zrotation
			JOINT RightAnkle
			{
				OFFSET 0.000000 -0.404085 0.000000 
				CHANNELS 3 Zrotation Xrotation Yrotation
				End Site
				{
					OFFSET 0.204105 -0.089430 0.008415 
				}
			}
		}
	}
	JOINT LeftHip
	{
		OFFSET 0.052140 -0.069960 -0.075570 
		CHANNELS 3 Zrotation Xrotation Yrotation
		JOINT LeftKnee
		{
			OFFSET 0.000000 -0.402270 0.000000 
			CHANNELS 1 Zrotation
			JOINT LeftAnkle
			{
				OFFSET 0.000000 -0.404085 0.000000 
				CHANNELS 3 Zrotation Xrotation Yrotation
				End Site
				{
					OFFSET 0.204105 -0.089430 -0.008415 
				}
			}
		}
	}
}
MOTION
Frames: 30
Frame Time: 0.02
0.60198 -1.04197 -0.03229 -184.74809 50.76764 6.68504 20.97914 6.59797 0.30658 -60.90933 -3.38017 -0.83078 -64.40045 11.40186 -71.48751 109.46599 125.3138 85.3134 -22.97513 -64.40038 -11.40178 64.51907 88.61018 -93.51777 39.50421 1.45943 46.03813 -9.58838 -14.42035 -0.4803 -43.82432 -7.43075 -11.69564 44.3186 4.10627 21.06811 -0.47742 -30.56698 -9.07025 -4.8332
0.60194 -1.0421 -0.03278 -184.96234 50.67047 6.90957 21.03902 6.59714 0.44606 -60.96842 -3.61724 -0.83078 -64.40045 11.40186 -71.35691 109.50212 125.28655 85.31341 -22.97534 -64.40039 -11.40179 64.48902 88.65565 -93.60499 39.22435 1.39237 46.1418 -9.43806 -14.24253 -0.48012 -43.2114 -7.95773 -11.62683 44.36531 4.14653 21.04993 -0.47769 -30.59365 -9.28074 -4.95212
0.60188 -1.04228 -0.03331 -185.19003 50.65667 7.11875 21.01025 6.60896 0.57173 -61.01244 -3.8396 -0.83078 -64.40045 11.40186 -71.20964 109.54071 125.25389 85.3134 -22.97522 -64.40041 -11.40181 64.47212 88.71165 -93.69747 38.98287 1.31424 46.14389 -9.26263 -14.10265 -0.48022 -42.45216 -8.59689 -11.5527 44.31481 4.21367 21.08756 -0.47752 -30.5515 -9.52934 -5.08192
0.60181 -1.04242 -0.03381 -185.40875 50.60024 7.33508 21.02718 6.61313 0.70407 -61.06114 -4.06534 -0.83078 -64.40045 11.40186 -71.07489 109.57816 125.22303 85.3134 -22.97522 -64.40042 -11.40182 64.45141 88.7622 -93.78568 38.72848 1.24324 46.19491 -9.10267 -13.93309 -0.47988 -41.77319 -9.19525 -11.48903 44.31474 4.26771 21.10913 -0.47756 -30.54655 -9.756 -5.20766
0.6018 -1.04261 -0.03435 -185.64259 50.55707 7.55485 21.02764 6.62433 0.83778 -61.11993 -4.30548 -0.83078 -64.40045 11.40186 -70.91837 109.61431 125.19422 85.31341 -22.97534 -64.40044 -11.40184 64.42194 88.81536 -93.88197 38.45366 1.16347 46.24142 -8.92435 -13.81015 -0.4808 -41.03381 -9.75872 -11.39163 44.29629 4.32616 21.08377 -0.47761 -30.52037 -9.99904 -5.32902
0.60168 -1.04273 -0.03481 -185.8461 50.50915 7.76107 21.03861 6.62473 0.96346 -61.15388 -4.51184 -0.83078 -64.40045 11.40186 -70.804 109.65473 125.16033 85.3134 -22.97513 -64.40045 -11.40185 64.41323 88.86545 -93.96261 38.23083 1.09935 46.27039 -8.77922 -13.60367 -0.47923 -40.38746 -10.41314 -11.36174 44.28976 4.38131 21.16994 -0.47752 -30.52011 -10.21706 -5.4609
0.6013 -1.04262 -0.03503 -185.97371 50.42193 7.9478 21.1038 6.58649 1.07966 -61.12169 -4.62971 -0.83078 -64.40044 11.40185 -70.80443 109.70081 125.1114 85.31336 -22.97398 -64.40044 -11.40184 64.46449 88.90698 -93.99889 38.14435 1.08056 46.27628 -8.72609 -13.12841 -0.47016 -40.02073 -11.35732 -11.53714 44.34211 4.42384 21.58051 -0.47711 -30.61448 -10.37101 -5.63727
0.60083 -1.04244 -0.03516 -186.06827 50.32902 8.11859 21.18104 6.53805 1.18636 -61.06517 -4.71377 -0.83078 -64.40043 11.40184 -70.84872 109.75211 125.05803 85.31331 -22.97251 -64.40042 -11.40182 64.53512 88.94465 -94.01919 38.10865 1.07799 46.2669 -8.70819 -12.57325 -0.45867 -39.75533 -12.37721 -11.77786 44.40823 4.4616 22.09744 -0.47657 -30.73565 -10.49649 -5.82099
0.60041 -1.0423 -0.03531 -186.17002 50.24339 8.28667 21.24969 6.49812 1.29079 -61.02038 -4.81253 -0.83078 -64.40042 11.40183 -70.87698 109.80492 125.00831 85.31326 -22.97123 -64.40041 -11.40181 64.59307 88.98248 -94.04671 38.04849 1.06832 46.26316 -8.67829 -12.07453 -0.44866 -39.45218 -13.31796 -11.97699 44.46557 4.49931 22.54716 -0.47612 -30.84006 -10.62613 -5.98957
0.59996 -1.04213 -0.03552 -186.30415 50.14072 8.49535 21.32882 6.44238 1.42197 -60.972 -4.91376 -0.83078 -64.40041 11.40181 -70.88916 109.84198 124.95158 85.31321 -22.96976 -64.40039 -11.40179 64.66784 89.02736 -94.07464 37.99553 1.05707 46.26154 -8.6314 -11.49366 -0.43704 -39.1086 -14.44875 -12.22502 44.53055 4.54685 23.0775 -0.47553 -30.96163 -10.79372 -6.20756
0.59955 -1.04201 -0.0356 -186.36429 50.07114 8.61703 21.3897 6.41684 1.49613 -60.92585 -5.0018 -0.83078 -64.4004 11.40181 -70.94422 109.91235 124.90835 85.31317 -22.96861 -64.40038 -11.40178 64.71198 89.05654 -94.0978 37.93909 1.05319 46.25314 -8.62757 -11.06248 -0.4282 -38.87556 -15.20371 -12.38825 44.58382 4.57306 23.4655 -0.47521 -31.05452 -10.87545 -6.32518
0.59931 -1.04204 -0.03539 -186.21509 50.09401 8.49235 21.40143 6.47809 1.40828 -60.8888 -5.06361 -0.83078 -64.4004 11.4018 -71.11768 110.07959 124.90467 85.31316 -22.96842 -64.40039 -11.40179 64.66726 89.04298 -94.11223 37.86153 1.06515 46.23057 -8.74315 -11.0807 -0.42767 -38.92077 -14.87075 -12.28827 44.60424 4.53595 23.42648 -0.47573 -31.06342 -10.72375 -6.15589
0.59913 -1.04211 -0.03506 -185.99486 50.14989 8.28265 21.39422 6.56964 1.26467 -60.85532 -5.11318 -0.83078 -64.4004 11.40181 -71.33083 110.27906 124.91465 85.31317 -22.96856 -64.40041 -11.40181 64.59113 89.01371 -94.12229 37.77881 1.08417 46.20222 -8.89939 -11.24887 -0.43001 -39.0748 -14.16179 -12.10274 44.61247 4.47836 23.24212 -0.47654 -31.04263 -10.48732 -5.88693
0.59893 -1.04218 -0.03478 -185.81581 50.19068 8.11845 21.39311 6.64693 1.15123 -60.82251 -5.16694 -0.83078 -64.4004 11.40181 -71.51889 110.45964 124.91752 85.31317 -22.96854 -64.40042 -11.40182 64.52868 88.99183 -94.13399 37.69703 1.10034 46.1763 -9.031 -11.33764 -0.43103 -39.18129 -13.64571 -11.96551 44.62467 4.43384 23.12881 -0.47719 -31.03451 -10.29129 -5.66856
0.59868 -1.0422 -0.0345 -185.59843 50.23233 7.9245 21.40213 6.72683 1.01729 -60.7799 -5.22464 -0.83078 -64.4004 11.40181 -71.73838 110.65809 124.92359 85.31317 -22.96855 -64.40044 -11.40184 64.46837 88.96894 -94.14663 37.62103 1.11538 46.14995 -9.18931 -11.47197 -0.43207 -39.28346 -13.0414 -11.79252 44.64333 4.37375 22.99674 -0.47794 -31.03037 -10.08514 -5.42742
0.59855 -1.04232 -0.03421 -185.44393 50.27929 7.77279 21.38646 6.80751 0.91267 -60.75795 -5.27251 -0.83078 -64.4004 11.40181 -71.90111 110.82717 124.92685 85.31317 -22.96858 -64.40045 -11.40186 64.3972 88.94428 -94.15643 37.53356 1.13447 46.12416 -9.3018 -11.54705 -0.43374 -39.41874 -12.52814 -11.67068 44.64623 4.34072 22.8696 -0.47855 -31.01102 -9.88174 -5.21077
0.59871 -1.04272 -0.03395 -185.48495 50.33969 7.75641 21.29825 6.8923 0.90489 -60.80017 -5.28923 -0.83078 -64.4004 11.40181 -71.89843 110.90503 124.9143 85.31317 -22.96857 -64.40045 -11.40186 64.29246 88.92006 -94.15982 37.39476 1.16113 46.09447 -9.2726 -11.43103 -0.43687 -39.62232 -12.37808 -11.72944 44.60204 4.39209 22.77612 -0.47873 -30.95284 -9.69432 -5.07906
0.59898 -1.04321 -0.03369 -185.59104 50.40308 7.78593 21.18745 6.97509 0.92815 -60.86167 -5.29802 -0.83078 -64.4004 11.40181 -71.83684 110.95257 124.89932 85.31317 -22.96857 -64.40045 -11.40186 64.17996 88.8943 -94.16047 37.24854 1.19195 46.06689 -9.19669 -11.24915 -0.44047 -39.85436 -12.32822 -11.83898 44.54354 4.47057 22.6952 -0.47875 -30.88098 -9.51492 -4.97669
0.59919 -1.04364 -0.03345 -185.66453 50.46059 7.79589 21.09291 7.05276 0.93578 -60.90927 -5.3151 -0.83078 -64.4004 11.40181 -71.80129 111.01549 124.8886 85.31317 -22.96856 -64.40045 -11.40186 64.0782 88.86831 -94.16225 37.1188 1.22195 46.04293 -9.14541 -11.09145 -0.4436 -40.07054 -12.2195 -11.91274 44.49591 4.53356 22.61786 -0.47883 -30.818 -9.34021 -4.86555
0.59944 -1.04414 -0.03315 -185.74824 50.53819 7.7974 20.9726 7.15714 0.94796 -60.9788 -5.31162 -0.83078 -64.4004 11.40181 -71.77021 111.07297 124.86519 85.31317 -22.96856 -64.40045 -11.40186 63.94459 88.8458 -94.16448 36.93234 1.24748 45.99949 -9.08118 -10.96208 -0.44791 -40.30277 -12.15527 -12.03674 44.42961 4.60909 22.49533 -0.47897 -30.7429 -9.12774 -4.73182
0.59963 -1.04451 -0.03296 -185.82711 50.57441 7.82851 20.9006 7.20476 0.95866 -61.00702 -5.34963 -0.83078 -64.4004 11.40181 -71.71536 111.13392 124.86728 85.31317 -22.96855 -64.40045 -11.40186 63.8763 88.81575 -94.16499 36.86384 1.28348 45.99712 -9.03232 -10.75752 -0.44986 -40.5071 -12.02541 -12.06981 44.39872 4.66539 22.47299 -0.47894 -30.69002 -8.99641 -4.65319
0.5996 -1.04449 -0.03311 -185.87673 50.49385 7.93049 20.96944 7.09838 0.95895 -60.91797 -5.50097 -0.83078 -64.4004 11.40181 -71.60852 111.21354 124.94154 85.31317 -22.96855 -64.40044 -11.40184 63.98661 88.76674 -94.16319 37.10924 1.34494 46.10806 -9.03656 -10.34904 -0.44495 -40.62514 -11.70668 -11.83522 44.47105 4.66056 22.71372 -0.47854 -30.70325 -9.09184 -4.7216
0.59949 -1.04432 -0.03338 -185.9197 50.37179 8.06096 21.08725 6.93459 0.95679 -60.7865 -5.69497 -0.83078 -64.4004 11.40181 -71.47969 111.29707 125.04114 85.31317 -22.96854 -64.40042 -11.40182 64.16359 88.71008 -94.15944 37.47571 1.41716 46.26006 -9.05766 -9.86885 -0.4377 -40.71407 -11.31799 -11.50881 44.57914 4.63595 23.05683 -0.47796 -30.73916 -9.26787 -4.84429
0.59941 -1.04423 -0.03359 -185.96591 50.26961 8.17865 21.18165 6.79514 0.95513 -60.67326 -5.87166 -0.83078 -64.4004 11.40181 -71.36127 111.37773 125.12844 85.31317 -22.96853 -64.40041 -11.40181 64.31286 88.65594 -94.15544 37.79628 1.48607 46.3932 -9.07148 -9.42873 -0.43168 -40.81715 -10.95117 -11.22722 44.66973 4.62123 23.3616 -0.47742 -30.76402 -9.40477 -4.94162
0.59935 -1.04411 -0.03379 -186.01297 50.1629 8.29744 21.28075 6.6621 0.95686 -60.56459 -6.03947 -0.83078 -64.4004 11.4018 -71.23925 111.46254 125.21945 85.31317 -22.96852 -64.40039 -11.40179 64.45166 88.60548 -94.15615 38.07993 1.54866 46.52785 -9.08261 -8.95436 -0.42495 -40.91706 -10.62623 -10.93321 44.76538 4.60305 23.63509 -0.47701 -30.79176 -9.55382 -5.04395
0.59924 -1.044 -0.03405 -186.05644 50.05617 8.41981 21.38123 6.50327 0.95086 -60.43675 -6.2358 -0.83078 -64.4004 11.4018 -71.12004 111.53931 125.3082 85.31317 -22.96852 -64.40038 -11.40178 64.62727 88.54595 -94.14661 38.46699 1.62665 46.66831 -9.10329 -8.53569 -0.41914 -41.01675 -10.20028 -10.64396 44.8588 4.58777 23.99423 -0.47631 -30.81875 -9.69489 -5.14699
0.59897 -1.04391 -0.0345 -186.08606 49.95555 8.54756 21.48029 6.27718 0.9212 -60.2607 -6.50224 -0.83078 -64.4004 11.4018 -71.01631 111.59929 125.38947 85.31317 -22.9685 -64.40039 -11.40179 64.89618 88.45993 -94.10931 39.13003 1.74657 46.82117 -9.1524 -8.28393 -0.41636 -41.11822 -9.4775 -10.3789 44.94065 4.57857 24.5962 -0.47472 -30.84091 -9.80971 -5.25091
0.59866 -1.04382 -0.03501 -186.11281 49.85711 8.67712 21.57796 6.02904 0.88415 -60.06789 -6.79546 -0.83078 -64.4004 11.4018 -70.91622 111.65012 125.46675 85.31317 -22.96849 -64.4004 -11.4018 65.19824 88.36568 -94.06181 39.88906 1.88114 46.9772 -9.20977 -8.09199 -0.41458 -41.22099 -8.6616 -10.12382 45.01845 4.57387 25.27478 -0.47285 -30.86114 -9.91119 -5.35148
0.59837 -1.04374 -0.03549 -186.14448 49.76024 8.8042 21.6719 5.79763 0.85232 -59.88627 -7.07554 -0.83078 -64.4004 11.4018 -70.81293 111.70096 125.54255 85.31317 -22.96851 -64.40041 -11.40182 65.48015 88.2774 -94.01886 40.59125 2.00776 47.12766 -9.25933 -7.87569 -0.41239 -41.32644 -7.9108 -9.87122 45.09601 4.5717 25.89789 -0.47118 -30.88039 -10.00809 -5.44512
0.59805 -1.04363 -0.03601 -186.16156 49.65096 8.93987 21.78574 5.53582 0.81285 -59.68774 -7.36195 -0.83078 -64.4004 11.4018 -70.7145 111.76893 125.63287 85.31316 -22.96837 -64.40043 -11.40183 65.78646 88.17947 -93.976 41.35421 2.14056 47.29725 -9.32595 -7.64431 -0.40994 -41.41804 -7.06127 -9.58522 45.18368 4.55046 26.61243 -0.46922 -30.90797 -10.15111 -5.57538
